<?xml version="1.0" encoding="UTF-8" standalone="no"?>
<!-- Uploaded to: SVG Repo, www.svgrepo.com, Transformed by: SVG Repo Mixer Tools -->

<svg
   fill="#f5f5f5"
   width="800px"
   height="800px"
   viewBox="0 0 64 64"
   version="1.1"
   id="svg11"
   sodipodi:docname="whatsapp.svg"
   inkscape:version="1.1.2 (0a00cf5339, 2022-02-04, custom)"
   xmlns:inkscape="http://www.inkscape.org/namespaces/inkscape"
   xmlns:sodipodi="http://sodipodi.sourceforge.net/DTD/sodipodi-0.dtd"
   xmlns="http://www.w3.org/2000/svg"
   xmlns:svg="http://www.w3.org/2000/svg">
  <defs
     id="defs15" />
  <sodipodi:namedview
     id="namedview13"
     pagecolor="#ffffff"
     bordercolor="#cccccc"
     borderopacity="1"
     inkscape:pageshadow="0"
     inkscape:pageopacity="1"
     inkscape:pagecheckerboard="0"
     showgrid="false"
     inkscape:zoom="0.52125"
     inkscape:cx="53.717026"
     inkscape:cy="411.51079"
     inkscape:window-width="1920"
     inkscape:window-height="1001"
     inkscape:window-x="-9"
     inkscape:window-y="-9"
     inkscape:window-maximized="1"
     inkscape:current-layer="svg11" />
  <g
     id="SVGRepo_bgCarrier"
     stroke-width="0" />
  <g
     id="SVGRepo_tracerCarrier"
     stroke-linecap="round"
     stroke-linejoin="round" />
  <g
     id="SVGRepo_iconCarrier"
     transform="matrix(1.1598793,0,0,1.1596187,-4.635914,-5.2736225)"
     style="stroke-width:5.38047408;stroke-miterlimit:4;stroke-dasharray:none">
    <title
       id="title4" />
    <path
       d="M 6,59 A 1,1 0 0 1 5.05,57.68 L 9,46.06 A 27.1,27.1 0 0 1 13,13 26.93,26.93 0 0 1 51,13 v 0 A 26.94,26.94 0 0 1 20.22,56.23 L 6.2,59 Z m 14.35,-4.85 a 1,1 0 0 1 0.45,0.11 24.94,24.94 0 0 0 28.83,-39.89 v 0 a 24.93,24.93 0 0 0 -35.26,0 25.08,25.08 0 0 0 -3.4,31 1,1 0 0 1 0.1,0.86 L 7.51,56.72 20.17,54.2 Z"
       id="path6"
       style="stroke-width:5.38047408;stroke-miterlimit:4;stroke-dasharray:none" />
    <path
       d="m 39.17,46 a 8.46,8.46 0 0 1 -0.92,0 c -5.31,-0.58 -12,-5.83 -13.89,-7.68 v 0 c -1.85,-1.85 -7.11,-8.58 -7.68,-13.89 -0.46,-4.24 2.37,-7.12 3.61,-8.17 a 2.87,2.87 0 0 1 2,-0.69 l 2.7,0.09 a 1,1 0 0 1 0.9,0.65 c 0.6,1.59 2.54,6.88 2.54,8.25 0,1.2 -1.06,2.13 -2,2.95 -0.2,0.17 -0.47,0.41 -0.63,0.58 a 28.74,28.74 0 0 0 3.61,5.16 28.77,28.77 0 0 0 5.16,3.61 c 0.17,-0.17 0.41,-0.44 0.58,-0.63 0.82,-0.94 1.75,-2 3,-2 1.37,0 6.66,1.94 8.25,2.54 a 1,1 0 0 1 0.65,0.9 l 0.09,2.7 a 3,3 0 0 1 -0.69,2 A 9.82,9.82 0 0 1 39.17,46 Z M 25.78,36.88 c 1.65,1.65 8,6.6 12.69,7.11 3.29,0.35 5.59,-1.92 6.43,-2.91 a 1,1 0 0 0 0.22,-0.66 l -0.07,-2 a 47.65,47.65 0 0 0 -6.92,-2.18 c -0.32,0 -1.11,0.93 -1.45,1.32 -0.68,0.78 -1.22,1.39 -2,1.39 -1.27,0 -5.7,-3.28 -6.69,-4.27 C 27,33.69 23.75,29.23 23.75,28 c 0,-0.75 0.61,-1.29 1.39,-2 0.38,-0.34 1.29,-1.12 1.32,-1.45 a 47.7,47.7 0 0 0 -2.18,-6.92 l -2,-0.07 a 1,1 0 0 0 -0.66,0.22 c -1,0.84 -3.27,3.14 -2.91,6.42 0.51,4.72 5.46,11 7.11,12.69 z m 9,0 z"
       id="path8"
       style="stroke-width:5.38047408;stroke-miterlimit:4;stroke-dasharray:none" />
  </g>
</svg>
