<?xml version="1.0" encoding="UTF-8" standalone="no"?>
<!-- Uploaded to: SVG Repo, www.svgrepo.com, Generator: SVG Repo Mixer Tools -->

<svg
   fill="#000000"
   height="375"
   width="372"
   version="1.1"
   id="Capa_1"
   viewBox="0 0 90.675 91.40625"
   xml:space="preserve"
   sodipodi:docname="logotipo.svg"
   inkscape:version="1.1.2 (0a00cf5339, 2022-02-04, custom)"
   inkscape:export-filename="D:\jorge\PROGRAMACION\GIMP\ese\logotipo.png"
   inkscape:export-xdpi="96"
   inkscape:export-ydpi="96"
   xmlns:inkscape="http://www.inkscape.org/namespaces/inkscape"
   xmlns:sodipodi="http://sodipodi.sourceforge.net/DTD/sodipodi-0.dtd"
   xmlns="http://www.w3.org/2000/svg"
   xmlns:svg="http://www.w3.org/2000/svg"><defs
   id="defs7"><inkscape:path-effect
     effect="bspline"
     id="path-effect7266"
     is_visible="true"
     lpeversion="1"
     weight="33.333333"
     steps="2"
     helper_size="0"
     apply_no_weight="true"
     apply_with_weight="true"
     only_selected="false" /><inkscape:path-effect
     effect="bspline"
     id="path-effect7262"
     is_visible="true"
     lpeversion="1"
     weight="33.333333"
     steps="2"
     helper_size="0"
     apply_no_weight="true"
     apply_with_weight="true"
     only_selected="false" /><rect
     x="-963.34546"
     y="89.613533"
     width="375.25668"
     height="380.85751"
     id="rect15215" /><rect
     x="-963.34546"
     y="89.613533"
     width="375.25668"
     height="380.85751"
     id="rect15215-6" /><rect
     x="-963.34546"
     y="89.613533"
     width="375.25668"
     height="380.85751"
     id="rect15215-3" /><rect
     x="-963.34546"
     y="89.613533"
     width="375.25668"
     height="380.85751"
     id="rect15215-6-2" /><rect
     x="-963.34546"
     y="89.613533"
     width="375.25668"
     height="380.85751"
     id="rect15215-9" /><rect
     x="-963.34546"
     y="89.613533"
     width="375.25668"
     height="380.85751"
     id="rect15215-3-6" /></defs><sodipodi:namedview
   id="namedview5"
   pagecolor="#ffffff"
   bordercolor="#cccccc"
   borderopacity="1"
   inkscape:pageshadow="0"
   inkscape:pageopacity="1"
   inkscape:pagecheckerboard="0"
   showgrid="false"
   showguides="false"
   inkscape:zoom="0.71417783"
   inkscape:cx="257.63891"
   inkscape:cy="451.5682"
   inkscape:window-width="1920"
   inkscape:window-height="1001"
   inkscape:window-x="-9"
   inkscape:window-y="-9"
   inkscape:window-maximized="1"
   inkscape:current-layer="Capa_1" />

<path
   d="M 61.991317,68.790972 H 17.122062 c -0.64534,0 -1.168576,-0.523491 -1.168576,-1.169164 0,-0.645664 0.523236,-1.169147 1.168576,-1.169147 h 44.869255 c 4.737911,0 8.592408,-3.856485 8.592408,-8.59711 v -0.197296 c 0,-4.74036 -3.854497,-8.597111 -8.592408,-8.597111 H 27.100108 C 20.953755,49.061393 15.953486,44.058608 15.953486,37.909129 v -0.201683 c 0,-6.149488 5.000269,-11.152606 11.146622,-11.152606 h 24.932424 l 0.616908,-0.0027 c 0.658998,-0.0037 0.704925,2.363006 -0.158723,2.348896 l -0.458259,-0.0075 H 27.100025 c -4.85771,0 -8.8095,3.954096 -8.8095,8.814291 v 0.201676 c 0,4.8599 3.95179,8.813993 8.8095,8.813993 h 34.891209 c 6.026551,0 10.929552,4.905501 10.929552,10.93541 v 0.197295 c 0,6.029644 -4.903001,10.935147 -10.929552,10.935147 z"
   id="path2-2-3"
   sodipodi:nodetypes="sssssssscssscsscssssssss"
   style="fill:#048ba8;fill-opacity:1;stroke:#048ba8;stroke-width:2.03684;stroke-miterlimit:4;stroke-dasharray:none;stroke-opacity:1" /><path
   d="m 63.42203,36.459487 6.032916,0.01801 a 1.5082329,1.7382743 0 0 0 1.512137,-1.733755 l 0.002,-0.869133 4.524689,0.01358 a 1.5082335,1.7382749 0 0 0 0.0076,-3.476538 l -4.524697,-0.01354 0.0118,-5.214807 4.524706,0.01358 a 1.5082345,1.7382762 0 0 0 0.0076,-3.476541 l -4.524713,-0.01358 0.002,-0.869139 a 1.5082329,1.7382743 0 0 0 -1.504383,-1.742779 l -6.032909,-0.01801 a 7.5412174,8.6913735 0 0 0 -0.03919,17.382688 z"
   id="path4-1-7"
   style="fill:#16db93;fill-opacity:1;stroke-width:1.61917" /><ellipse
   style="fill:none;fill-opacity:1;stroke:#048ba8;stroke-width:4.30389375;stroke-linecap:round;stroke-linejoin:round;stroke-miterlimit:4;stroke-dasharray:none;stroke-opacity:1"
   id="path1118"
   cx="45.369183"
   cy="45.320259"
   rx="41.887875"
   ry="41.205269" /></svg>
